<svg viewBox="0 0 800 600" xmlns="http://www.w3.org/2000/svg">
  <!-- Background -->
  <rect width="800" height="600" fill="#ffffff"/>
  
  <!-- Vertical Timeline -->
  <line x1="400" y1="50" x2="400" y2="550" stroke="#333" stroke-width="2"/>
  
  <!-- Categories -->
  <text x="50" y="100" font-family="Arial" font-size="20" fill="#333">Zero-shot Models</text>
  <text x="50" y="250" font-family="Arial" font-size="20" fill="#333">Transfer-learning Models</text>
  <text x="50" y="400" font-family="Arial" font-size="20" fill="#333">Multi-task Models</text>
  <text x="50" y="500" font-family="Arial" font-size="20" fill="#333">Single-task Models</text>
  
  <!-- Model Nodes -->
  <!-- Zero-shot -->
  <circle cx="500" cy="100" r="30" fill="#B3D9FF"/>
  <text x="480" y="105" font-family="Arial" font-size="14" fill="#333">GPT-3</text>
  
  <circle cx="440" cy="80" r="20" fill="#B3D9FF"/>
  <text x="420" y="85" font-family="Arial" font-size="12" fill="#333">GPT-2</text>
  
  <circle cx="560" cy="80" r="15" fill="#C1E1C1"/>
  <text x="535" y="85" font-family="Arial" font-size="12" fill="#333">DALL-E 2</text>
  
  <!-- Transfer-learning -->
  <circle cx="500" cy="250" r="40" fill="#B3D9FF"/>
  <text x="480" y="255" font-family="Arial" font-size="14" fill="#333">BERT</text>
  
  <circle cx="440" cy="230" r="20" fill="#C1E1C1"/>
  <text x="415" y="235" font-family="Arial" font-size="12" fill="#333">SimCLR</text>
  
  <circle cx="560" cy="230" r="15" fill="#FFB3B3"/>
  <text x="530" y="235" font-family="Arial" font-size="12" fill="#333">Doctor AI</text>
  
  <!-- Multi-task -->
  <circle cx="460" cy="380" r="15" fill="#B3D9FF"/>
  <text x="440" y="385" font-family="Arial" font-size="12" fill="#333">MTAN</text>
  
  <circle cx="500" cy="400" r="25" fill="#C1E1C1"/>
  <text x="470" y="405" font-family="Arial" font-size="14" fill="#333">MT MIMIC</text>
  
  <circle cx="540" cy="380" r="15" fill="#B3D9FF"/>
  <text x="520" y="385" font-family="Arial" font-size="12" fill="#333">MQAN</text>
  
  <!-- Single-task -->
  <circle cx="440" cy="480" r="20" fill="#B3D9FF"/>
  <text x="420" y="485" font-family="Arial" font-size="12" fill="#333">SOFA</text>
  
  <circle cx="500" cy="500" r="25" fill="#FFB3B3"/>
  <text x="460" y="505" font-family="Arial" font-size="14" fill="#333">Diabetic Retinopathy</text>
  
  <circle cx="560" cy="480" r="20" fill="#C1E1C1"/>
  <text x="530" y="485" font-family="Arial" font-size="12" fill="#333">Caltech-101</text>
  
  <circle cx="440" cy="520" r="15" fill="#B3D9FF"/>
  <text x="380" y="525" font-family="Arial" font-size="11" fill="#333">Stanford Sentiment Treebank</text>
  
  <!-- Data Scales -->
  <!-- NLP Scale -->
  <line x1="650" y1="50" x2="650" y2="150" stroke="#B3D9FF" stroke-width="2"/>
  <text x="660" y="70" font-family="Arial" font-size="12" fill="#666">1M Tokens</text>
  <text x="660" y="100" font-family="Arial" font-size="12" fill="#666">16B Tokens</text>
  <text x="660" y="130" font-family="Arial" font-size="12" fill="#666">499B Tokens</text>
  
  <!-- Vision Scale -->
  <line x1="650" y1="170" x2="650" y2="270" stroke="#C1E1C1" stroke-width="2"/>
  <text x="660" y="190" font-family="Arial" font-size="12" fill="#666">14K Images</text>
  <text x="660" y="220" font-family="Arial" font-size="12" fill="#666">2M Images</text>
  <text x="660" y="250" font-family="Arial" font-size="12" fill="#666">650M Images</text>
  
  <!-- Medical Scale -->
  <line x1="650" y1="290" x2="650" y2="390" stroke="#FFB3B3" stroke-width="2"/>
  <text x="660" y="310" font-family="Arial" font-size="12" fill="#666">248 Patients</text>
  <text x="660" y="340" font-family="Arial" font-size="12" fill="#666">2M Patients</text>
  <text x="660" y="370" font-family="Arial" font-size="12" fill="#666">28M Patients</text>
  
  <!-- Legend -->
  <rect x="50" y="550" width="15" height="15" fill="#B3D9FF"/>
  <text x="70" y="562" font-family="Arial" font-size="12" fill="#333">NLP Models</text>
  
  <rect x="150" y="550" width="15" height="15" fill="#C1E1C1"/>
  <text x="170" y="562" font-family="Arial" font-size="12" fill="#333">Computer Vision</text>
  
  <rect x="270" y="550" width="15" height="15" fill="#FFB3B3"/>
  <text x="290" y="562" font-family="Arial" font-size="12" fill="#333">Medical AI</text>
</svg>
