<svg viewBox="0 0 1400 500" xmlns="http://www.w3.org/2000/svg">
    <!-- Root -->
    <g transform="translate(700,30)">
        <circle r="40" fill="#4682B4"/>
        <text x="0" y="5" text-anchor="middle" fill="white">Foundation</text>
        <text x="0" y="25" text-anchor="middle" fill="white">Models</text>
        <text x="0" y="-15" text-anchor="middle" fill="white">92</text>
    </g>

    <!-- Lines to main categories -->
    <line x1="700" y1="70" x2="400" y2="150" stroke="black" stroke-width="2"/>
    <line x1="700" y1="70" x2="1000" y2="150" stroke="black" stroke-width="2"/>

    <!-- EHR and Clinical -->
    <g transform="translate(400,150)">
        <circle r="40" fill="#20B2AA"/>
        <text x="0" y="5" text-anchor="middle" fill="white">EHR</text>
        <text x="0" y="25" text-anchor="middle" fill="white">Models</text>
        <text x="0" y="-15" text-anchor="middle" fill="white">54</text>
    </g>

    <g transform="translate(1000,150)">
        <circle r="40" fill="#20B2AA"/>
        <text x="0" y="5" text-anchor="middle" fill="white">Clinical</text>
        <text x="0" y="25" text-anchor="middle" fill="white">Models</text>
        <text x="0" y="-15" text-anchor="middle" fill="white">38</text>
    </g>

    <!-- Lines to major subcategories -->
    <line x1="370" y1="185" x2="200" y2="270" stroke="black" stroke-width="2"/>
    <line x1="400" y1="190" x2="400" y2="270" stroke="black" stroke-width="2"/>
    <line x1="430" y1="185" x2="600" y2="270" stroke="black" stroke-width="2"/>

    <line x1="970" y1="185" x2="800" y2="270" stroke="black" stroke-width="2"/>
    <line x1="1000" y1="190" x2="1000" y2="270" stroke="black" stroke-width="2"/>
    <line x1="1030" y1="185" x2="1200" y2="270" stroke="black" stroke-width="2"/>

    <!-- EHR Major Categories -->
    <g transform="translate(200,270)">
        <circle r="35" fill="#3CB371"/>
        <text x="0" y="5" text-anchor="middle" fill="white">Encoder</text>
        <text x="0" y="-15" text-anchor="middle" fill="white">20</text>
    </g>

    <g transform="translate(400,270)">
        <circle r="35" fill="#3CB371"/>
        <text x="0" y="5" text-anchor="middle" fill="white">Decoder</text>
        <text x="0" y="-15" text-anchor="middle" fill="white">9</text>
    </g>

    <g transform="translate(600,270)">
        <circle r="35" fill="#3CB371"/>
        <text x="0" y="5" text-anchor="middle" fill="white">LLMs</text>
        <text x="0" y="-15" text-anchor="middle" fill="white">25</text>
    </g>

    <!-- Clinical Major Categories -->
    <g transform="translate(800,270)">
        <circle r="35" fill="#3CB371"/>
        <text x="0" y="5" text-anchor="middle" fill="white">Imaging</text>
        <text x="0" y="-15" text-anchor="middle" fill="white">13</text>
    </g>

    <g transform="translate(1000,270)">
        <circle r="35" fill="#3CB371"/>
        <text x="0" y="5" text-anchor="middle" fill="white">Genetics</text>
        <text x="0" y="-15" text-anchor="middle" fill="white">10</text>
    </g>

    <g transform="translate(1200,270)">
        <circle r="35" fill="#3CB371"/>
        <text x="0" y="5" text-anchor="middle" fill="white">Signals</text>
        <text x="0" y="-15" text-anchor="middle" fill="white">15</text>
    </g>

    <!-- Lines to minor subcategories -->
    <!-- Encoder -->
    <line x1="180" y1="300" x2="100" y2="400" stroke="black" stroke-width="1"/>
    <line x1="200" y1="305" x2="200" y2="400" stroke="black" stroke-width="1"/>
    <line x1="220" y1="300" x2="300" y2="400" stroke="black" stroke-width="1"/>

    <!-- Decoder -->
    <line x1="380" y1="300" x2="350" y2="400" stroke="black" stroke-width="1"/>
    <line x1="400" y1="305" x2="400" y2="400" stroke="black" stroke-width="1"/>
    <line x1="420" y1="300" x2="450" y2="400" stroke="black" stroke-width="1"/>

    <!-- LLMs -->
    <line x1="580" y1="300" x2="500" y2="400" stroke="black" stroke-width="1"/>
    <line x1="600" y1="305" x2="600" y2="400" stroke="black" stroke-width="1"/>
    <line x1="620" y1="300" x2="700" y2="400" stroke="black" stroke-width="1"/>

    <!-- Imaging -->
    <line x1="780" y1="300" x2="750" y2="400" stroke="black" stroke-width="1"/>
    <line x1="800" y1="305" x2="800" y2="400" stroke="black" stroke-width="1"/>
    <line x1="820" y1="300" x2="850" y2="400" stroke="black" stroke-width="1"/>

    <!-- Genetics -->
    <line x1="980" y1="300" x2="900" y2="400" stroke="black" stroke-width="1"/>
    <line x1="1000" y1="305" x2="1000" y2="400" stroke="black" stroke-width="1"/>
    <line x1="1020" y1="300" x2="1100" y2="400" stroke="black" stroke-width="1"/>

    <!-- Signals -->
    <line x1="1180" y1="300" x2="1150" y2="400" stroke="black" stroke-width="1"/>
    <line x1="1200" y1="305" x2="1200" y2="400" stroke="black" stroke-width="1"/>
    <line x1="1220" y1="300" x2="1250" y2="400" stroke="black" stroke-width="1"/>

    <!-- EHR Detailed Categories -->
    <!-- Encoder subcategories -->
    <g transform="translate(100,400)">
        <circle r="30" fill="#6B8E23"/>
        <text x="0" y="5" text-anchor="middle" fill="white">BERT</text>
        <text x="0" y="-10" text-anchor="middle" fill="white">10</text>
    </g>

    <g transform="translate(200,400)">
        <circle r="30" fill="#6B8E23"/>
        <text x="0" y="5" text-anchor="middle" fill="white">BEHRT</text>
        <text x="0" y="-10" text-anchor="middle" fill="white">8</text>
    </g>

    <g transform="translate(300,400)">
        <circle r="30" fill="#6B8E23"/>
        <text x="0" y="5" text-anchor="middle" fill="white">Other</text>
        <text x="0" y="-10" text-anchor="middle" fill="white">2</text>
    </g>

    <!-- Decoder subcategories -->
    <g transform="translate(350,400)">
        <circle r="30" fill="#6B8E23"/>
        <text x="0" y="5" text-anchor="middle" fill="white">Early</text>
        <text x="0" y="-10" text-anchor="middle" fill="white">1</text>
    </g>

    <g transform="translate(400,400)">
        <circle r="30" fill="#6B8E23"/>
        <text x="0" y="5" text-anchor="middle" fill="white">GPT</text>
        <text x="0" y="-10" text-anchor="middle" fill="white">5</text>
    </g>

    <g transform="translate(450,400)">
        <circle r="30" fill="#6B8E23"/>
        <text x="0" y="5" text-anchor="middle" fill="white">Mamba</text>
        <text x="0" y="-10" text-anchor="middle" fill="white">3</text>
    </g>

    <!-- LLM subcategories -->
    <g transform="translate(500,400)">
        <circle r="30" fill="#6B8E23"/>
        <text x="0" y="5" text-anchor="middle" fill="white">GPT</text>
        <text x="0" y="-10" text-anchor="middle" fill="white">3</text>
    </g>

    <g transform="translate(600,400)">
        <circle r="30" fill="#6B8E23"/>
        <text x="0" y="5" text-anchor="middle" fill="white">LLaMA</text>
        <text x="0" y="-10" text-anchor="middle" fill="white">4</text>
    </g>

    <g transform="translate(700,400)">
        <circle r="30" fill="#6B8E23"/>
        <text x="0" y="5" text-anchor="middle" fill="white">Other</text>
        <text x="0" y="-10" text-anchor="middle" fill="white">18</text>
    </g>

    <!-- Clinical Detailed Categories -->
    <!-- Imaging subcategories -->
    <g transform="translate(750,400)">
        <circle r="30" fill="#6B8E23"/>
        <text x="0" y="5" text-anchor="middle" fill="white">SAM</text>
        <text x="0" y="-10" text-anchor="middle" fill="white">3</text>
    </g>

    <g transform="translate(800,400)">
        <circle r="30" fill="#6B8E23"/>
        <text x="0" y="5" text-anchor="middle" fill="white">Other</text>
        <text x="0" y="-10" text-anchor="middle" fill="white">8</text>
    </g>

    <g transform="translate(850,400)">
        <circle r="30" fill="#6B8E23"/>
        <text x="0" y="5" text-anchor="middle" fill="white">Frame</text>
        <text x="0" y="-10" text-anchor="middle" fill="white">2</text>
    </g>

    <!-- Genetics subcategories -->
    <g transform="translate(900,400)">
        <circle r="30" fill="#6B8E23"/>
        <text x="0" y="5" text-anchor="middle" fill="white">Genetics</text>
        <text x="0" y="-10" text-anchor="middle" fill="white">4</text>
    </g>

    <g transform="translate(1000,400)">
        <circle r="30" fill="#6B8E23"/>
        <text x="0" y="5" text-anchor="middle" fill="white">Long</text>
        <text x="0" y="-10" text-anchor="middle" fill="white">3</text>
    </g>

    <g transform="translate(1100,400)">
        <circle r="30" fill="#6B8E23"/>
        <text x="0" y="5" text-anchor="middle" fill="white">Special</text>
        <text x="0" y="-10" text-anchor="middle" fill="white">3</text>
    </g>

    <!-- Signals subcategories -->
    <g transform="translate(1150,400)">
        <circle r="30" fill="#6B8E23"/>
        <text x="0" y="5" text-anchor="middle" fill="white">ECG</text>
        <text x="0" y="-10" text-anchor="middle" fill="white">5</text>
    </g>

    <g transform="translate(1200,400)">
        <circle r="30" fill="#6B8E23"/>
        <text x="0" y="5" text-anchor="middle" fill="white">EEG</text>
        <text x="0" y="-10" text-anchor="middle" fill="white">5</text>
    </g>

    <g transform="translate(1250,400)">
        <circle r="30" fill="#6B8E23"/>
        <text x="0" y="5" text-anchor="middle" fill="white">Multi</text>
        <text x="0" y="-10" text-anchor="middle" fill="white">5</text>
    </g>

</svg>
