<svg xmlns="http://www.w3.org/2000/svg" viewBox="0 0 800 600">
  <!-- Definitions -->
  <defs>
    <!-- Gradients -->
    <linearGradient id="headerGrad" x1="0%" y1="0%" x2="100%" y2="0%">
      <stop offset="0%" style="stop-color:#4a90e2;stop-opacity:1" />
      <stop offset="100%" style="stop-color:#357abd;stop-opacity:1" />
    </linearGradient>
    <!-- Card Shadow -->
    <filter id="shadow" x="-20%" y="-20%" width="140%" height="140%">
      <feGaussianBlur in="SourceAlpha" stdDeviation="3" />
      <feOffset dx="2" dy="2" result="offsetblur" />
      <feComponentTransfer>
        <feFuncA type="linear" slope="0.2" />
      </feComponentTransfer>
      <feMerge>
        <feMergeNode />
        <feMergeNode in="SourceGraphic" />
      </feMerge>
    </filter>
  </defs>

  <!-- Background -->
  <rect width="800" height="600" fill="#f5f7fa" />
  
  <!-- Header -->
  <rect x="0" y="0" width="800" height="80" fill="url(#headerGrad)" />
  <text x="40" y="50" fill="white" font-family="Arial" font-size="24">Electronic Health Record</text>
  
  <!-- Patient Info Card -->
  <g transform="translate(40,100)" filter="url(#shadow)">
    <rect width="220" height="180" rx="10" fill="white" />
    <text x="20" y="30" font-family="Arial" font-weight="bold" font-size="16">Patient Information</text>
    <line x1="20" y1="40" x2="200" y2="40" stroke="#e0e0e0" stroke-width="2"/>
    <text x="20" y="70" font-family="Arial" font-size="14">Name: John Smith</text>
    <text x="20" y="95" font-family="Arial" font-size="14">DOB: 01/15/1980</text>
    <text x="20" y="120" font-family="Arial" font-size="14">ID: #12345678</text>
    <text x="20" y="145" font-family="Arial" font-size="14">Gender: Male</text>
  </g>

  <!-- Vitals Card -->
  <g transform="translate(290,100)" filter="url(#shadow)">
    <rect width="220" height="180" rx="10" fill="white" />
    <text x="20" y="30" font-family="Arial" font-weight="bold" font-size="16">Vital Signs</text>
    <line x1="20" y1="40" x2="200" y2="40" stroke="#e0e0e0" stroke-width="2"/>
    <!-- Heart Rate Icon and Value -->
    <path d="M20,60 L30,60 L35,70 L40,50 L45,70 L50,60 L60,60" 
          stroke="#ff6b6b" fill="none" stroke-width="2"/>
    <text x="70" y="65" font-family="Arial" font-size="14">72 bpm</text>
    <!-- Blood Pressure Icon and Value -->
    <circle cx="35" cy="90" r="10" stroke="#4a90e2" fill="none" stroke-width="2"/>
    <text x="70" y="95" font-family="Arial" font-size="14">120/80 mmHg</text>
    <!-- Temperature Icon and Value -->
    <rect x="35" y="110" width="4" height="15" fill="#ffd93d"/>
    <circle cx="35" cy="130" r="4" fill="#ffd93d"/>
    <text x="70" y="125" font-family="Arial" font-size="14">98.6°F</text>
  </g>

  <!-- Medications Card -->
  <g transform="translate(540,100)" filter="url(#shadow)">
    <rect width="220" height="180" rx="10" fill="white" />
    <text x="20" y="30" font-family="Arial" font-weight="bold" font-size="16">Medications</text>
    <line x1="20" y1="40" x2="200" y2="40" stroke="#e0e0e0" stroke-width="2"/>
    <!-- Medication List -->
    <g transform="translate(20,60)">
      <circle cx="5" cy="5" r="3" fill="#4a90e2"/>
      <text x="15" y="10" font-family="Arial" font-size="14">Lisinopril 10mg</text>
    </g>
    <g transform="translate(20,85)">
      <circle cx="5" cy="5" r="3" fill="#4a90e2"/>
      <text x="15" y="10" font-family="Arial" font-size="14">Metformin 500mg</text>
    </g>
    <g transform="translate(20,110)">
      <circle cx="5" cy="5" r="3" fill="#4a90e2"/>
      <text x="15" y="10" font-family="Arial" font-size="14">Aspirin 81mg</text>
    </g>
  </g>

  <!-- Medical History Card -->
  <g transform="translate(40,310)" filter="url(#shadow)">
    <rect width="470" height="250" rx="10" fill="white" />
    <text x="20" y="30" font-family="Arial" font-weight="bold" font-size="16">Medical History</text>
    <line x1="20" y1="40" x2="450" y2="40" stroke="#e0e0e0" stroke-width="2"/>
    <!-- Timeline -->
    <line x1="50" y1="70" x2="50" y2="230" stroke="#e0e0e0" stroke-width="2"/>
    <!-- Events -->
    <g transform="translate(50,80)">
      <circle cx="0" cy="0" r="5" fill="#4a90e2"/>
      <text x="20" y="5" font-family="Arial" font-size="14">2023 - Annual Physical</text>
    </g>
    <g transform="translate(50,120)">
      <circle cx="0" cy="0" r="5" fill="#4a90e2"/>
      <text x="20" y="5" font-family="Arial" font-size="14">2022 - Flu Vaccination</text>
    </g>
    <g transform="translate(50,160)">
      <circle cx="0" cy="0" r="5" fill="#4a90e2"/>
      <text x="20" y="5" font-family="Arial" font-size="14">2021 - COVID-19 Vaccination</text>
    </g>
    <g transform="translate(50,200)">
      <circle cx="0" cy="0" r="5" fill="#4a90e2"/>
      <text x="20" y="5" font-family="Arial" font-size="14">2020 - Hypertension Diagnosis</text>
    </g>
  </g>

  <!-- Lab Results Card -->
  <g transform="translate(540,310)" filter="url(#shadow)">
    <rect width="220" height="250" rx="10" fill="white" />
    <text x="20" y="30" font-family="Arial" font-weight="bold" font-size="16">Lab Results</text>
    <line x1="20" y1="40" x2="200" y2="40" stroke="#e0e0e0" stroke-width="2"/>
    <!-- Lab Values -->
    <g transform="translate(20,70)">
      <text x="0" y="0" font-family="Arial" font-size="14">Glucose</text>
      <text x="50" y="0" font-family="Arial" font-size="14">98 mg/dL</text>
    </g>
    <g transform="translate(20,100)">
      <text x="0" y="0" font-family="Arial" font-size="14">Cholesterol</text>
      <text x="50" y="0" font-family="Arial" font-size="14">180 mg/dL</text>
    </g>
    <g transform="translate(20,130)">
      <text x="0" y="0" font-family="Arial" font-size="14">HDL</text>
      <text x="50" y="0" font-family="Arial" font-size="14">45 mg/dL</text>
    </g>
    <g transform="translate(20,160)">
      <text x="0" y="0" font-family="Arial" font-size="14">LDL</text>
      <text x="50" y="0" font-family="Arial" font-size="14">100 mg/dL</text>
    </g>
  </g>
</svg>
